<svg width="966" height="134" viewBox="0 0 966 134" fill="none" xmlns="http://www.w3.org/2000/svg">
<path d="M356.585 96V82.9091H364.435V84.3153H358.17V88.7386H363.847V90.1449H358.17V96H356.585ZM367.15 82.9091H369.042L373.491 93.7756H373.644L378.093 82.9091H379.985V96H378.502V86.054H378.374L374.283 96H372.851L368.76 86.054H368.633V96H367.15V82.9091ZM390.322 86.1818C390.246 85.5341 389.935 85.0312 389.389 84.6733C388.844 84.3153 388.175 84.1364 387.382 84.1364C386.803 84.1364 386.295 84.2301 385.861 84.4176C385.43 84.6051 385.094 84.8629 384.851 85.1911C384.612 85.5192 384.493 85.892 384.493 86.3097C384.493 86.6591 384.576 86.9595 384.742 87.2109C384.913 87.4581 385.13 87.6648 385.394 87.831C385.658 87.9929 385.935 88.1271 386.225 88.2337C386.515 88.3359 386.781 88.419 387.024 88.483L388.354 88.8409C388.695 88.9304 389.074 89.054 389.491 89.2116C389.913 89.3693 390.316 89.5845 390.7 89.8572C391.087 90.1257 391.407 90.4709 391.658 90.8928C391.91 91.3146 392.036 91.8324 392.036 92.446C392.036 93.1534 391.85 93.7926 391.479 94.3636C391.113 94.9347 390.576 95.3885 389.869 95.7251C389.165 96.0618 388.311 96.2301 387.305 96.2301C386.368 96.2301 385.556 96.0788 384.87 95.7763C384.188 95.4737 383.651 95.0518 383.259 94.5107C382.871 93.9695 382.652 93.3409 382.601 92.625H384.237C384.28 93.1193 384.446 93.5284 384.736 93.8523C385.03 94.1719 385.401 94.4105 385.848 94.5682C386.3 94.7216 386.786 94.7983 387.305 94.7983C387.911 94.7983 388.454 94.7003 388.935 94.5043C389.417 94.304 389.798 94.027 390.08 93.6733C390.361 93.3153 390.501 92.8977 390.501 92.4205C390.501 91.9858 390.38 91.6321 390.137 91.3594C389.894 91.0866 389.575 90.8651 389.178 90.6946C388.782 90.5241 388.354 90.375 387.893 90.2472L386.283 89.7869C385.26 89.4929 384.45 89.0732 383.854 88.5277C383.257 87.9822 382.959 87.2685 382.959 86.3864C382.959 85.6534 383.157 85.0142 383.553 84.4688C383.954 83.919 384.491 83.4929 385.164 83.1903C385.842 82.8835 386.598 82.7301 387.433 82.7301C388.277 82.7301 389.027 82.8814 389.683 83.1839C390.339 83.4822 390.859 83.8913 391.243 84.4112C391.631 84.9311 391.835 85.5213 391.857 86.1818H390.322ZM356.381 118V108.182H357.889V118H356.381ZM357.148 106.545C356.854 106.545 356.6 106.445 356.387 106.245C356.178 106.045 356.074 105.804 356.074 105.523C356.074 105.241 356.178 105.001 356.387 104.8C356.6 104.6 356.854 104.5 357.148 104.5C357.442 104.5 357.693 104.6 357.902 104.8C358.115 105.001 358.222 105.241 358.222 105.523C358.222 105.804 358.115 106.045 357.902 106.245C357.693 106.445 357.442 106.545 357.148 106.545ZM362.161 112.094V118H360.652V108.182H362.11V109.716H362.237C362.468 109.217 362.817 108.817 363.286 108.514C363.754 108.207 364.36 108.054 365.101 108.054C365.766 108.054 366.347 108.19 366.846 108.463C367.345 108.732 367.732 109.141 368.009 109.69C368.286 110.236 368.425 110.926 368.425 111.761V118H366.916V111.864C366.916 111.092 366.716 110.491 366.316 110.061C365.915 109.626 365.365 109.409 364.666 109.409C364.185 109.409 363.754 109.513 363.375 109.722C363 109.931 362.704 110.236 362.487 110.636C362.269 111.037 362.161 111.523 362.161 112.094ZM378.858 108.182L375.228 118H373.694L370.063 108.182H371.699L374.409 116.006H374.512L377.222 108.182H378.858ZM384.614 118.205C383.668 118.205 382.852 117.996 382.166 117.578C381.484 117.156 380.958 116.568 380.587 115.814C380.221 115.055 380.038 114.173 380.038 113.168C380.038 112.162 380.221 111.276 380.587 110.509C380.958 109.737 381.474 109.136 382.134 108.706C382.799 108.271 383.575 108.054 384.461 108.054C384.972 108.054 385.477 108.139 385.976 108.31C386.474 108.48 386.928 108.757 387.337 109.141C387.746 109.52 388.072 110.023 388.315 110.649C388.558 111.276 388.68 112.047 388.68 112.963V113.602H381.112V112.298H387.146C387.146 111.744 387.035 111.25 386.813 110.815C386.596 110.381 386.285 110.038 385.88 109.786C385.479 109.535 385.006 109.409 384.461 109.409C383.86 109.409 383.34 109.558 382.901 109.857C382.467 110.151 382.132 110.534 381.898 111.007C381.663 111.48 381.546 111.987 381.546 112.528V113.398C381.546 114.139 381.674 114.768 381.93 115.283C382.19 115.795 382.55 116.185 383.01 116.453C383.47 116.717 384.005 116.849 384.614 116.849C385.011 116.849 385.369 116.794 385.688 116.683C386.012 116.568 386.291 116.398 386.526 116.172C386.76 115.942 386.941 115.656 387.069 115.315L388.526 115.724C388.373 116.219 388.115 116.653 387.753 117.028C387.391 117.399 386.943 117.689 386.411 117.898C385.878 118.102 385.279 118.205 384.614 118.205ZM397.929 110.381L396.574 110.764C396.489 110.538 396.363 110.319 396.197 110.106C396.035 109.888 395.813 109.71 395.532 109.569C395.251 109.428 394.891 109.358 394.452 109.358C393.851 109.358 393.35 109.496 392.95 109.773C392.553 110.046 392.355 110.393 392.355 110.815C392.355 111.19 392.491 111.487 392.764 111.704C393.037 111.921 393.463 112.102 394.043 112.247L395.5 112.605C396.378 112.818 397.032 113.144 397.462 113.583C397.893 114.018 398.108 114.578 398.108 115.264C398.108 115.827 397.946 116.33 397.622 116.773C397.303 117.216 396.855 117.565 396.28 117.821C395.705 118.077 395.036 118.205 394.273 118.205C393.271 118.205 392.442 117.987 391.786 117.553C391.13 117.118 390.714 116.483 390.54 115.648L391.972 115.29C392.108 115.818 392.366 116.214 392.745 116.479C393.129 116.743 393.629 116.875 394.247 116.875C394.95 116.875 395.509 116.726 395.922 116.428C396.339 116.125 396.548 115.763 396.548 115.341C396.548 115 396.429 114.714 396.19 114.484C395.952 114.25 395.585 114.075 395.091 113.96L393.455 113.577C392.555 113.364 391.895 113.033 391.473 112.586C391.055 112.134 390.847 111.57 390.847 110.892C390.847 110.338 391.002 109.848 391.313 109.422C391.629 108.996 392.057 108.661 392.598 108.418C393.143 108.175 393.761 108.054 394.452 108.054C395.423 108.054 396.186 108.267 396.74 108.693C397.298 109.119 397.695 109.682 397.929 110.381ZM404.649 108.182V109.46H399.561V108.182H404.649ZM401.044 105.83H402.552V115.188C402.552 115.614 402.614 115.933 402.737 116.146C402.865 116.355 403.027 116.496 403.223 116.568C403.423 116.636 403.634 116.67 403.856 116.67C404.022 116.67 404.159 116.662 404.265 116.645C404.372 116.624 404.457 116.607 404.521 116.594L404.828 117.949C404.725 117.987 404.583 118.026 404.399 118.064C404.216 118.107 403.984 118.128 403.703 118.128C403.276 118.128 402.859 118.036 402.45 117.853C402.045 117.67 401.708 117.391 401.44 117.016C401.176 116.641 401.044 116.168 401.044 115.597V105.83ZM406.918 118V108.182H408.426V118H406.918ZM407.685 106.545C407.391 106.545 407.137 106.445 406.924 106.245C406.715 106.045 406.611 105.804 406.611 105.523C406.611 105.241 406.715 105.001 406.924 104.8C407.137 104.6 407.391 104.5 407.685 104.5C407.979 104.5 408.23 104.6 408.439 104.8C408.652 105.001 408.759 105.241 408.759 105.523C408.759 105.804 408.652 106.045 408.439 106.245C408.23 106.445 407.979 106.545 407.685 106.545ZM415.152 121.886C414.424 121.886 413.797 121.793 413.273 121.605C412.749 121.422 412.312 121.179 411.963 120.876C411.618 120.578 411.343 120.259 411.138 119.918L412.34 119.074C412.476 119.253 412.649 119.457 412.858 119.688C413.066 119.922 413.352 120.124 413.714 120.295C414.081 120.469 414.56 120.557 415.152 120.557C415.945 120.557 416.599 120.365 417.115 119.982C417.63 119.598 417.888 118.997 417.888 118.179V116.185H417.76C417.65 116.364 417.492 116.585 417.287 116.849C417.087 117.109 416.797 117.342 416.418 117.546C416.043 117.746 415.536 117.847 414.897 117.847C414.104 117.847 413.392 117.659 412.762 117.284C412.135 116.909 411.639 116.364 411.272 115.648C410.91 114.932 410.729 114.062 410.729 113.04C410.729 112.034 410.906 111.158 411.26 110.413C411.613 109.663 412.105 109.083 412.736 108.674C413.367 108.261 414.096 108.054 414.922 108.054C415.561 108.054 416.069 108.161 416.444 108.374C416.823 108.582 417.113 108.821 417.313 109.089C417.517 109.354 417.675 109.571 417.786 109.741H417.939V108.182H419.397V118.281C419.397 119.125 419.205 119.811 418.821 120.339C418.442 120.872 417.931 121.262 417.287 121.509C416.648 121.761 415.936 121.886 415.152 121.886ZM415.101 116.491C415.706 116.491 416.218 116.353 416.635 116.076C417.053 115.799 417.37 115.401 417.588 114.881C417.805 114.361 417.914 113.739 417.914 113.014C417.914 112.307 417.807 111.683 417.594 111.141C417.381 110.6 417.066 110.176 416.648 109.869C416.23 109.562 415.715 109.409 415.101 109.409C414.462 109.409 413.929 109.571 413.503 109.895C413.081 110.219 412.764 110.653 412.551 111.199C412.342 111.744 412.238 112.349 412.238 113.014C412.238 113.696 412.344 114.299 412.557 114.823C412.775 115.343 413.094 115.752 413.516 116.05C413.942 116.344 414.471 116.491 415.101 116.491ZM425.047 118.23C424.425 118.23 423.86 118.113 423.353 117.879C422.846 117.64 422.444 117.297 422.145 116.849C421.847 116.398 421.698 115.852 421.698 115.213C421.698 114.651 421.809 114.195 422.03 113.845C422.252 113.491 422.548 113.214 422.919 113.014C423.289 112.814 423.699 112.665 424.146 112.567C424.598 112.464 425.051 112.384 425.507 112.324C426.104 112.247 426.588 112.19 426.958 112.151C427.333 112.109 427.606 112.038 427.777 111.94C427.951 111.842 428.039 111.672 428.039 111.429V111.378C428.039 110.747 427.866 110.257 427.521 109.908C427.18 109.558 426.662 109.384 425.968 109.384C425.248 109.384 424.683 109.541 424.274 109.857C423.865 110.172 423.577 110.509 423.411 110.866L421.979 110.355C422.235 109.759 422.576 109.294 423.002 108.962C423.432 108.625 423.901 108.391 424.408 108.259C424.919 108.122 425.422 108.054 425.917 108.054C426.232 108.054 426.594 108.092 427.003 108.169C427.417 108.241 427.815 108.393 428.199 108.623C428.586 108.853 428.908 109.2 429.164 109.665C429.419 110.129 429.547 110.751 429.547 111.531V118H428.039V116.67H427.962C427.86 116.884 427.689 117.112 427.451 117.354C427.212 117.597 426.895 117.804 426.498 117.974C426.102 118.145 425.618 118.23 425.047 118.23ZM425.277 116.875C425.874 116.875 426.377 116.758 426.786 116.523C427.199 116.289 427.51 115.987 427.719 115.616C427.932 115.245 428.039 114.855 428.039 114.446V113.065C427.975 113.142 427.834 113.212 427.617 113.276C427.404 113.336 427.157 113.389 426.875 113.436C426.598 113.479 426.328 113.517 426.064 113.551C425.804 113.581 425.593 113.607 425.431 113.628C425.039 113.679 424.672 113.762 424.331 113.877C423.995 113.988 423.722 114.156 423.513 114.382C423.309 114.604 423.206 114.906 423.206 115.29C423.206 115.814 423.4 116.21 423.788 116.479C424.18 116.743 424.676 116.875 425.277 116.875ZM436.57 108.182V109.46H431.482V108.182H436.57ZM432.965 105.83H434.474V115.188C434.474 115.614 434.536 115.933 434.659 116.146C434.787 116.355 434.949 116.496 435.145 116.568C435.345 116.636 435.556 116.67 435.778 116.67C435.944 116.67 436.08 116.662 436.187 116.645C436.294 116.624 436.379 116.607 436.443 116.594L436.749 117.949C436.647 117.987 436.504 118.026 436.321 118.064C436.138 118.107 435.906 118.128 435.624 118.128C435.198 118.128 434.781 118.036 434.372 117.853C433.967 117.67 433.63 117.391 433.362 117.016C433.097 116.641 432.965 116.168 432.965 115.597V105.83ZM438.84 118V108.182H440.348V118H438.84ZM439.607 106.545C439.313 106.545 439.059 106.445 438.846 106.245C438.637 106.045 438.533 105.804 438.533 105.523C438.533 105.241 438.637 105.001 438.846 104.8C439.059 104.6 439.313 104.5 439.607 104.5C439.901 104.5 440.152 104.6 440.361 104.8C440.574 105.001 440.681 105.241 440.681 105.523C440.681 105.804 440.574 106.045 440.361 106.245C440.152 106.445 439.901 106.545 439.607 106.545ZM447.1 118.205C446.213 118.205 445.436 117.994 444.767 117.572C444.102 117.15 443.582 116.56 443.207 115.801C442.836 115.043 442.651 114.156 442.651 113.142C442.651 112.119 442.836 111.227 443.207 110.464C443.582 109.701 444.102 109.109 444.767 108.687C445.436 108.265 446.213 108.054 447.1 108.054C447.986 108.054 448.762 108.265 449.426 108.687C450.096 109.109 450.615 109.701 450.986 110.464C451.361 111.227 451.549 112.119 451.549 113.142C451.549 114.156 451.361 115.043 450.986 115.801C450.615 116.56 450.096 117.15 449.426 117.572C448.762 117.994 447.986 118.205 447.1 118.205ZM447.1 116.849C447.773 116.849 448.327 116.677 448.762 116.332C449.196 115.987 449.518 115.533 449.727 114.97C449.936 114.408 450.04 113.798 450.04 113.142C450.04 112.486 449.936 111.874 449.727 111.308C449.518 110.741 449.196 110.283 448.762 109.933C448.327 109.584 447.773 109.409 447.1 109.409C446.426 109.409 445.873 109.584 445.438 109.933C445.003 110.283 444.681 110.741 444.473 111.308C444.264 111.874 444.159 112.486 444.159 113.142C444.159 113.798 444.264 114.408 444.473 114.97C444.681 115.533 445.003 115.987 445.438 116.332C445.873 116.677 446.426 116.849 447.1 116.849ZM455.36 112.094V118H453.851V108.182H455.309V109.716H455.437C455.667 109.217 456.016 108.817 456.485 108.514C456.954 108.207 457.559 108.054 458.3 108.054C458.965 108.054 459.547 108.19 460.045 108.463C460.544 108.732 460.932 109.141 461.209 109.69C461.486 110.236 461.624 110.926 461.624 111.761V118H460.116V111.864C460.116 111.092 459.915 110.491 459.515 110.061C459.114 109.626 458.564 109.409 457.866 109.409C457.384 109.409 456.954 109.513 456.574 109.722C456.199 109.931 455.903 110.236 455.686 110.636C455.469 111.037 455.36 111.523 455.36 112.094Z" fill="#586E75"/>
<path d="M646.585 108V94.9091H651.162C652.074 94.9091 652.826 95.0668 653.418 95.3821C654.011 95.6932 654.452 96.1129 654.741 96.6413C655.031 97.1655 655.176 97.7472 655.176 98.3864C655.176 98.9489 655.076 99.4134 654.876 99.7798C654.68 100.146 654.42 100.436 654.096 100.649C653.776 100.862 653.429 101.02 653.054 101.122V101.25C653.455 101.276 653.857 101.416 654.262 101.672C654.667 101.928 655.006 102.294 655.278 102.771C655.551 103.249 655.688 103.832 655.688 104.523C655.688 105.179 655.538 105.769 655.24 106.293C654.942 106.817 654.471 107.233 653.827 107.54C653.184 107.847 652.347 108 651.315 108H646.585ZM648.17 106.594H651.315C652.351 106.594 653.086 106.393 653.521 105.993C653.96 105.588 654.179 105.098 654.179 104.523C654.179 104.08 654.066 103.67 653.84 103.295C653.614 102.916 653.293 102.614 652.875 102.388C652.457 102.158 651.963 102.043 651.392 102.043H648.17V106.594ZM648.17 100.662H651.111C651.588 100.662 652.018 100.568 652.402 100.381C652.79 100.193 653.097 99.929 653.322 99.5881C653.553 99.2472 653.668 98.8466 653.668 98.3864C653.668 97.8111 653.467 97.3232 653.067 96.9226C652.666 96.5178 652.031 96.3153 651.162 96.3153H648.17V100.662ZM660.977 108.23C660.355 108.23 659.79 108.113 659.283 107.879C658.776 107.64 658.373 107.297 658.075 106.849C657.777 106.398 657.627 105.852 657.627 105.213C657.627 104.651 657.738 104.195 657.96 103.845C658.181 103.491 658.478 103.214 658.848 103.014C659.219 102.814 659.628 102.665 660.076 102.567C660.527 102.464 660.981 102.384 661.437 102.324C662.034 102.247 662.517 102.19 662.888 102.151C663.263 102.109 663.536 102.038 663.706 101.94C663.881 101.842 663.968 101.672 663.968 101.429V101.378C663.968 100.747 663.796 100.257 663.451 99.9077C663.11 99.5582 662.592 99.3835 661.897 99.3835C661.177 99.3835 660.613 99.5412 660.203 99.8565C659.794 100.172 659.507 100.509 659.341 100.866L657.909 100.355C658.164 99.7585 658.505 99.294 658.931 98.9616C659.362 98.625 659.831 98.3906 660.338 98.2585C660.849 98.1222 661.352 98.054 661.846 98.054C662.162 98.054 662.524 98.0923 662.933 98.169C663.346 98.2415 663.745 98.3928 664.128 98.6229C664.516 98.853 664.838 99.2003 665.093 99.6648C665.349 100.129 665.477 100.751 665.477 101.531V108H663.968V106.67H663.892C663.789 106.884 663.619 107.112 663.38 107.354C663.142 107.597 662.824 107.804 662.428 107.974C662.032 108.145 661.548 108.23 660.977 108.23ZM661.207 106.875C661.804 106.875 662.306 106.758 662.716 106.523C663.129 106.289 663.44 105.987 663.649 105.616C663.862 105.245 663.968 104.855 663.968 104.446V103.065C663.904 103.142 663.764 103.212 663.547 103.276C663.333 103.336 663.086 103.389 662.805 103.436C662.528 103.479 662.257 103.517 661.993 103.551C661.733 103.581 661.522 103.607 661.36 103.628C660.968 103.679 660.602 103.762 660.261 103.877C659.924 103.988 659.652 104.156 659.443 104.382C659.238 104.604 659.136 104.906 659.136 105.29C659.136 105.814 659.33 106.21 659.718 106.479C660.11 106.743 660.606 106.875 661.207 106.875ZM668.23 108V98.1818H669.688V99.6648H669.79C669.969 99.179 670.293 98.7848 670.762 98.4822C671.23 98.1797 671.759 98.0284 672.347 98.0284C672.458 98.0284 672.596 98.0305 672.762 98.0348C672.928 98.0391 673.054 98.0455 673.139 98.054V99.5881C673.088 99.5753 672.971 99.5561 672.788 99.5305C672.609 99.5007 672.419 99.4858 672.219 99.4858C671.742 99.4858 671.316 99.5859 670.941 99.7862C670.57 99.9822 670.276 100.255 670.058 100.604C669.845 100.95 669.739 101.344 669.739 101.787V108H668.23ZM674.928 108V98.1818H676.385V99.6648H676.487C676.666 99.179 676.99 98.7848 677.459 98.4822C677.928 98.1797 678.456 98.0284 679.044 98.0284C679.155 98.0284 679.293 98.0305 679.46 98.0348C679.626 98.0391 679.751 98.0455 679.837 98.054V99.5881C679.786 99.5753 679.668 99.5561 679.485 99.5305C679.306 99.5007 679.116 99.4858 678.916 99.4858C678.439 99.4858 678.013 99.5859 677.638 99.7862C677.267 99.9822 676.973 100.255 676.756 100.604C676.543 100.95 676.436 101.344 676.436 101.787V108H674.928ZM682.895 111.682C682.64 111.682 682.412 111.661 682.211 111.618C682.011 111.58 681.873 111.541 681.796 111.503L682.179 110.173C682.546 110.267 682.87 110.301 683.151 110.276C683.432 110.25 683.681 110.124 683.899 109.898C684.12 109.677 684.323 109.317 684.506 108.818L684.787 108.051L681.157 98.1818H682.793L685.503 106.006H685.605L688.316 98.1818H689.952L685.784 109.432C685.597 109.939 685.365 110.359 685.088 110.691C684.811 111.028 684.489 111.277 684.123 111.439C683.76 111.601 683.351 111.682 682.895 111.682ZM701.276 98.1818V99.4602H696.188V98.1818H701.276ZM697.67 95.8295H699.179V105.188C699.179 105.614 699.241 105.933 699.364 106.146C699.492 106.355 699.654 106.496 699.85 106.568C700.05 106.636 700.261 106.67 700.483 106.67C700.649 106.67 700.786 106.662 700.892 106.645C700.999 106.624 701.084 106.607 701.148 106.594L701.455 107.949C701.352 107.987 701.21 108.026 701.026 108.064C700.843 108.107 700.611 108.128 700.33 108.128C699.903 108.128 699.486 108.036 699.077 107.853C698.672 107.67 698.335 107.391 698.067 107.016C697.803 106.641 697.67 106.168 697.67 105.597V95.8295ZM703.545 108V98.1818H705.002V99.6648H705.104C705.283 99.179 705.607 98.7848 706.076 98.4822C706.545 98.1797 707.073 98.0284 707.661 98.0284C707.772 98.0284 707.911 98.0305 708.077 98.0348C708.243 98.0391 708.369 98.0455 708.454 98.054V99.5881C708.403 99.5753 708.286 99.5561 708.102 99.5305C707.923 99.5007 707.734 99.4858 707.533 99.4858C707.056 99.4858 706.63 99.5859 706.255 99.7862C705.884 99.9822 705.59 100.255 705.373 100.604C705.16 100.95 705.053 101.344 705.053 101.787V108H703.545ZM713.131 108.23C712.509 108.23 711.944 108.113 711.437 107.879C710.93 107.64 710.528 107.297 710.229 106.849C709.931 106.398 709.782 105.852 709.782 105.213C709.782 104.651 709.893 104.195 710.114 103.845C710.336 103.491 710.632 103.214 711.003 103.014C711.373 102.814 711.782 102.665 712.23 102.567C712.682 102.464 713.135 102.384 713.591 102.324C714.188 102.247 714.672 102.19 715.042 102.151C715.417 102.109 715.69 102.038 715.861 101.94C716.035 101.842 716.123 101.672 716.123 101.429V101.378C716.123 100.747 715.95 100.257 715.605 99.9077C715.264 99.5582 714.746 99.3835 714.052 99.3835C713.331 99.3835 712.767 99.5412 712.358 99.8565C711.949 100.172 711.661 100.509 711.495 100.866L710.063 100.355C710.319 99.7585 710.66 99.294 711.086 98.9616C711.516 98.625 711.985 98.3906 712.492 98.2585C713.003 98.1222 713.506 98.054 714.001 98.054C714.316 98.054 714.678 98.0923 715.087 98.169C715.501 98.2415 715.899 98.3928 716.282 98.6229C716.67 98.853 716.992 99.2003 717.248 99.6648C717.503 100.129 717.631 100.751 717.631 101.531V108H716.123V106.67H716.046C715.944 106.884 715.773 107.112 715.535 107.354C715.296 107.597 714.979 107.804 714.582 107.974C714.186 108.145 713.702 108.23 713.131 108.23ZM713.361 106.875C713.958 106.875 714.461 106.758 714.87 106.523C715.283 106.289 715.594 105.987 715.803 105.616C716.016 105.245 716.123 104.855 716.123 104.446V103.065C716.059 103.142 715.918 103.212 715.701 103.276C715.488 103.336 715.241 103.389 714.959 103.436C714.682 103.479 714.412 103.517 714.148 103.551C713.888 103.581 713.677 103.607 713.515 103.628C713.123 103.679 712.756 103.762 712.415 103.877C712.079 103.988 711.806 104.156 711.597 104.382C711.393 104.604 711.29 104.906 711.29 105.29C711.29 105.814 711.484 106.21 711.872 106.479C712.264 106.743 712.76 106.875 713.361 106.875ZM728.061 98.1818L724.431 108H722.897L719.266 98.1818H720.902L723.613 106.006H723.715L726.425 98.1818H728.061ZM733.817 108.205C732.871 108.205 732.055 107.996 731.369 107.578C730.688 107.156 730.161 106.568 729.79 105.814C729.424 105.055 729.241 104.173 729.241 103.168C729.241 102.162 729.424 101.276 729.79 100.509C730.161 99.7372 730.677 99.1364 731.337 98.706C732.002 98.2713 732.778 98.054 733.664 98.054C734.175 98.054 734.68 98.1392 735.179 98.3097C735.678 98.4801 736.131 98.7571 736.54 99.1406C736.95 99.5199 737.276 100.023 737.518 100.649C737.761 101.276 737.883 102.047 737.883 102.963V103.602H730.315V102.298H736.349C736.349 101.744 736.238 101.25 736.016 100.815C735.799 100.381 735.488 100.038 735.083 99.7862C734.683 99.5348 734.21 99.4091 733.664 99.4091C733.063 99.4091 732.543 99.5582 732.104 99.8565C731.67 100.151 731.335 100.534 731.101 101.007C730.866 101.48 730.749 101.987 730.749 102.528V103.398C730.749 104.139 730.877 104.768 731.133 105.283C731.393 105.795 731.753 106.185 732.213 106.453C732.673 106.717 733.208 106.849 733.817 106.849C734.214 106.849 734.572 106.794 734.891 106.683C735.215 106.568 735.494 106.398 735.729 106.172C735.963 105.942 736.144 105.656 736.272 105.315L737.729 105.724C737.576 106.219 737.318 106.653 736.956 107.028C736.594 107.399 736.146 107.689 735.614 107.898C735.081 108.102 734.482 108.205 733.817 108.205ZM741.686 94.9091V108H740.178V94.9091H741.686ZM751.404 100.381L750.048 100.764C749.963 100.538 749.838 100.319 749.671 100.106C749.509 99.8885 749.288 99.7095 749.007 99.5689C748.725 99.4283 748.365 99.358 747.926 99.358C747.325 99.358 746.825 99.4964 746.424 99.7734C746.028 100.046 745.83 100.393 745.83 100.815C745.83 101.19 745.966 101.487 746.239 101.704C746.512 101.921 746.938 102.102 747.517 102.247L748.975 102.605C749.852 102.818 750.507 103.144 750.937 103.583C751.367 104.018 751.583 104.578 751.583 105.264C751.583 105.827 751.421 106.33 751.097 106.773C750.777 107.216 750.33 107.565 749.754 107.821C749.179 108.077 748.51 108.205 747.747 108.205C746.746 108.205 745.917 107.987 745.261 107.553C744.605 107.118 744.189 106.483 744.014 105.648L745.446 105.29C745.583 105.818 745.84 106.214 746.22 106.479C746.603 106.743 747.104 106.875 747.722 106.875C748.425 106.875 748.983 106.726 749.396 106.428C749.814 106.125 750.023 105.763 750.023 105.341C750.023 105 749.904 104.714 749.665 104.484C749.426 104.25 749.06 104.075 748.566 103.96L746.929 103.577C746.03 103.364 745.369 103.033 744.948 102.586C744.53 102.134 744.321 101.57 744.321 100.892C744.321 100.338 744.477 99.848 744.788 99.4219C745.103 98.9957 745.531 98.6612 746.073 98.4183C746.618 98.1754 747.236 98.054 747.926 98.054C748.898 98.054 749.661 98.267 750.215 98.6932C750.773 99.1193 751.169 99.6818 751.404 100.381ZM646.585 130V116.909H648.094V121.741H648.222C648.332 121.571 648.486 121.354 648.682 121.089C648.882 120.821 649.168 120.582 649.538 120.374C649.913 120.161 650.42 120.054 651.06 120.054C651.886 120.054 652.615 120.261 653.246 120.674C653.876 121.087 654.369 121.673 654.722 122.432C655.076 123.19 655.253 124.085 655.253 125.116C655.253 126.156 655.076 127.058 654.722 127.82C654.369 128.579 653.879 129.167 653.252 129.585C652.626 129.998 651.903 130.205 651.085 130.205C650.455 130.205 649.95 130.1 649.57 129.891C649.191 129.678 648.899 129.437 648.695 129.169C648.49 128.896 648.332 128.67 648.222 128.491H648.043V130H646.585ZM648.068 125.091C648.068 125.832 648.177 126.487 648.394 127.053C648.612 127.616 648.929 128.057 649.347 128.376C649.764 128.692 650.276 128.849 650.881 128.849C651.511 128.849 652.038 128.683 652.46 128.351C652.886 128.014 653.205 127.562 653.418 126.996C653.636 126.425 653.744 125.79 653.744 125.091C653.744 124.401 653.638 123.778 653.425 123.224C653.216 122.666 652.898 122.225 652.472 121.901C652.05 121.573 651.52 121.409 650.881 121.409C650.267 121.409 649.751 121.565 649.334 121.876C648.916 122.183 648.601 122.613 648.388 123.167C648.175 123.717 648.068 124.358 648.068 125.091ZM660.45 130.23C659.827 130.23 659.263 130.113 658.756 129.879C658.249 129.64 657.846 129.297 657.548 128.849C657.249 128.398 657.1 127.852 657.1 127.213C657.1 126.651 657.211 126.195 657.433 125.845C657.654 125.491 657.95 125.214 658.321 125.014C658.692 124.814 659.101 124.665 659.548 124.567C660 124.464 660.454 124.384 660.91 124.324C661.506 124.247 661.99 124.19 662.361 124.151C662.736 124.109 663.009 124.038 663.179 123.94C663.354 123.842 663.441 123.672 663.441 123.429V123.378C663.441 122.747 663.268 122.257 662.923 121.908C662.582 121.558 662.065 121.384 661.37 121.384C660.65 121.384 660.085 121.541 659.676 121.857C659.267 122.172 658.979 122.509 658.813 122.866L657.381 122.355C657.637 121.759 657.978 121.294 658.404 120.962C658.835 120.625 659.303 120.391 659.81 120.259C660.322 120.122 660.825 120.054 661.319 120.054C661.634 120.054 661.996 120.092 662.406 120.169C662.819 120.241 663.217 120.393 663.601 120.623C663.989 120.853 664.31 121.2 664.566 121.665C664.822 122.129 664.95 122.751 664.95 123.531V130H663.441V128.67H663.364C663.262 128.884 663.092 129.112 662.853 129.354C662.614 129.597 662.297 129.804 661.901 129.974C661.504 130.145 661.021 130.23 660.45 130.23ZM660.68 128.875C661.276 128.875 661.779 128.758 662.188 128.523C662.602 128.289 662.913 127.987 663.121 127.616C663.335 127.245 663.441 126.855 663.441 126.446V125.065C663.377 125.142 663.237 125.212 663.019 125.276C662.806 125.336 662.559 125.389 662.278 125.436C662.001 125.479 661.73 125.517 661.466 125.551C661.206 125.581 660.995 125.607 660.833 125.628C660.441 125.679 660.075 125.762 659.734 125.877C659.397 125.988 659.124 126.156 658.915 126.382C658.711 126.604 658.609 126.906 658.609 127.29C658.609 127.814 658.803 128.21 659.19 128.479C659.582 128.743 660.079 128.875 660.68 128.875ZM671.692 130.205C670.771 130.205 669.979 129.987 669.314 129.553C668.649 129.118 668.138 128.519 667.78 127.756C667.422 126.994 667.243 126.122 667.243 125.142C667.243 124.145 667.426 123.265 667.792 122.502C668.163 121.735 668.679 121.136 669.339 120.706C670.004 120.271 670.78 120.054 671.666 120.054C672.356 120.054 672.979 120.182 673.532 120.438C674.086 120.693 674.54 121.051 674.894 121.511C675.248 121.972 675.467 122.509 675.552 123.122H674.044C673.929 122.675 673.673 122.278 673.277 121.933C672.885 121.584 672.356 121.409 671.692 121.409C671.104 121.409 670.588 121.562 670.145 121.869C669.706 122.172 669.363 122.6 669.116 123.154C668.873 123.704 668.751 124.349 668.751 125.091C668.751 125.849 668.871 126.51 669.109 127.072C669.352 127.635 669.693 128.072 670.132 128.383C670.575 128.694 671.095 128.849 671.692 128.849C672.084 128.849 672.439 128.781 672.759 128.645C673.079 128.509 673.349 128.312 673.571 128.057C673.792 127.801 673.95 127.494 674.044 127.136H675.552C675.467 127.716 675.256 128.238 674.92 128.702C674.587 129.163 674.146 129.529 673.596 129.802C673.051 130.07 672.416 130.205 671.692 130.205ZM679.164 126.42L679.138 124.554H679.445L683.741 120.182H685.607L681.03 124.81H680.903L679.164 126.42ZM677.758 130V116.909H679.266V130H677.758ZM683.996 130L680.161 125.142L681.235 124.094L685.914 130H683.996ZM692.611 130V120.182H694.12V130H692.611ZM693.378 118.545C693.084 118.545 692.831 118.445 692.618 118.245C692.409 118.045 692.304 117.804 692.304 117.523C692.304 117.241 692.409 117.001 692.618 116.8C692.831 116.6 693.084 116.5 693.378 116.5C693.672 116.5 693.924 116.6 694.132 116.8C694.346 117.001 694.452 117.241 694.452 117.523C694.452 117.804 694.346 118.045 694.132 118.245C693.924 118.445 693.672 118.545 693.378 118.545ZM698.391 124.094V130H696.883V120.182H698.34V121.716H698.468C698.698 121.217 699.047 120.817 699.516 120.514C699.985 120.207 700.59 120.054 701.331 120.054C701.996 120.054 702.578 120.19 703.077 120.463C703.575 120.732 703.963 121.141 704.24 121.69C704.517 122.236 704.655 122.926 704.655 123.761V130H703.147V123.864C703.147 123.092 702.947 122.491 702.546 122.061C702.145 121.626 701.596 121.409 700.897 121.409C700.415 121.409 699.985 121.513 699.606 121.722C699.231 121.931 698.934 122.236 698.717 122.636C698.5 123.037 698.391 123.523 698.391 124.094ZM716.744 120.182V121.46H711.656V120.182H716.744ZM713.139 117.83H714.648V127.188C714.648 127.614 714.71 127.933 714.833 128.146C714.961 128.355 715.123 128.496 715.319 128.568C715.519 128.636 715.73 128.67 715.952 128.67C716.118 128.67 716.254 128.662 716.361 128.645C716.467 128.624 716.553 128.607 716.616 128.594L716.923 129.949C716.821 129.987 716.678 130.026 716.495 130.064C716.312 130.107 716.08 130.128 715.798 130.128C715.372 130.128 714.955 130.036 714.545 129.853C714.141 129.67 713.804 129.391 713.536 129.016C713.271 128.641 713.139 128.168 713.139 127.597V117.83ZM719.013 130V120.182H720.522V130H719.013ZM719.781 118.545C719.487 118.545 719.233 118.445 719.02 118.245C718.811 118.045 718.707 117.804 718.707 117.523C718.707 117.241 718.811 117.001 719.02 116.8C719.233 116.6 719.487 116.5 719.781 116.5C720.075 116.5 720.326 116.6 720.535 116.8C720.748 117.001 720.854 117.241 720.854 117.523C720.854 117.804 720.748 118.045 720.535 118.245C720.326 118.445 720.075 118.545 719.781 118.545ZM723.285 130V120.182H724.742V121.716H724.87C725.075 121.192 725.405 120.785 725.861 120.495C726.317 120.201 726.865 120.054 727.504 120.054C728.151 120.054 728.691 120.201 729.121 120.495C729.556 120.785 729.894 121.192 730.137 121.716H730.24C730.491 121.209 730.868 120.806 731.371 120.508C731.874 120.205 732.477 120.054 733.18 120.054C734.058 120.054 734.776 120.329 735.334 120.879C735.892 121.424 736.171 122.274 736.171 123.429V130H734.663V123.429C734.663 122.705 734.465 122.187 734.068 121.876C733.672 121.565 733.205 121.409 732.669 121.409C731.978 121.409 731.443 121.618 731.064 122.036C730.685 122.449 730.495 122.973 730.495 123.608V130H728.961V123.276C728.961 122.717 728.78 122.268 728.418 121.927C728.056 121.582 727.589 121.409 727.018 121.409C726.626 121.409 726.259 121.513 725.919 121.722C725.582 121.931 725.309 122.221 725.1 122.592C724.896 122.958 724.794 123.382 724.794 123.864V130H723.285ZM743.046 130.205C742.1 130.205 741.284 129.996 740.598 129.578C739.916 129.156 739.39 128.568 739.019 127.814C738.653 127.055 738.469 126.173 738.469 125.168C738.469 124.162 738.653 123.276 739.019 122.509C739.39 121.737 739.905 121.136 740.566 120.706C741.231 120.271 742.006 120.054 742.893 120.054C743.404 120.054 743.909 120.139 744.407 120.31C744.906 120.48 745.36 120.757 745.769 121.141C746.178 121.52 746.504 122.023 746.747 122.649C746.99 123.276 747.111 124.047 747.111 124.963V125.602H739.543V124.298H745.577C745.577 123.744 745.466 123.25 745.245 122.815C745.028 122.381 744.716 122.038 744.312 121.786C743.911 121.535 743.438 121.409 742.893 121.409C742.292 121.409 741.772 121.558 741.333 121.857C740.898 122.151 740.564 122.534 740.329 123.007C740.095 123.48 739.978 123.987 739.978 124.528V125.398C739.978 126.139 740.106 126.768 740.361 127.283C740.621 127.795 740.981 128.185 741.442 128.453C741.902 128.717 742.437 128.849 743.046 128.849C743.442 128.849 743.8 128.794 744.12 128.683C744.444 128.568 744.723 128.398 744.957 128.172C745.192 127.942 745.373 127.656 745.501 127.315L746.958 127.724C746.805 128.219 746.547 128.653 746.184 129.028C745.822 129.399 745.375 129.689 744.842 129.898C744.309 130.102 743.711 130.205 743.046 130.205Z" fill="#586E75"/>
<path d="M1.58523 112V98.9091H6.16193C7.07386 98.9091 7.82599 99.0668 8.41832 99.3821C9.01065 99.6932 9.45171 100.113 9.74148 100.641C10.0313 101.165 10.1761 101.747 10.1761 102.386C10.1761 102.949 10.076 103.413 9.87571 103.78C9.67969 104.146 9.41974 104.436 9.09588 104.649C8.77628 104.862 8.42898 105.02 8.05398 105.122V105.25C8.45455 105.276 8.85724 105.416 9.26207 105.672C9.6669 105.928 10.0057 106.294 10.2784 106.771C10.5511 107.249 10.6875 107.832 10.6875 108.523C10.6875 109.179 10.5384 109.769 10.2401 110.293C9.94176 110.817 9.47088 111.233 8.82741 111.54C8.18395 111.847 7.34659 112 6.31534 112H1.58523ZM3.17045 110.594H6.31534C7.35085 110.594 8.08594 110.393 8.5206 109.993C8.95952 109.588 9.17898 109.098 9.17898 108.523C9.17898 108.08 9.06605 107.67 8.8402 107.295C8.61435 106.916 8.29261 106.614 7.875 106.388C7.45739 106.158 6.96307 106.043 6.39205 106.043H3.17045V110.594ZM3.17045 104.662H6.1108C6.58807 104.662 7.01847 104.568 7.40199 104.381C7.78977 104.193 8.09659 103.929 8.32244 103.588C8.55256 103.247 8.66761 102.847 8.66761 102.386C8.66761 101.811 8.46733 101.323 8.06676 100.923C7.66619 100.518 7.03125 100.315 6.16193 100.315H3.17045V104.662ZM15.9769 112.23C15.3548 112.23 14.7901 112.113 14.283 111.879C13.7759 111.64 13.3732 111.297 13.0749 110.849C12.7766 110.398 12.6275 109.852 12.6275 109.213C12.6275 108.651 12.7383 108.195 12.9599 107.845C13.1815 107.491 13.4776 107.214 13.8484 107.014C14.2191 106.814 14.6282 106.665 15.0756 106.567C15.5273 106.464 15.9812 106.384 16.4371 106.324C17.0337 106.247 17.5174 106.19 17.8881 106.151C18.2631 106.109 18.5359 106.038 18.7063 105.94C18.881 105.842 18.9684 105.672 18.9684 105.429V105.378C18.9684 104.747 18.7958 104.257 18.4506 103.908C18.1097 103.558 17.592 103.384 16.8974 103.384C16.1772 103.384 15.6126 103.541 15.2035 103.857C14.7944 104.172 14.5067 104.509 14.3406 104.866L12.9087 104.355C13.1644 103.759 13.5053 103.294 13.9315 102.962C14.3619 102.625 14.8306 102.391 15.3377 102.259C15.8491 102.122 16.3519 102.054 16.8462 102.054C17.1616 102.054 17.5238 102.092 17.9329 102.169C18.3462 102.241 18.7447 102.393 19.1282 102.623C19.516 102.853 19.8377 103.2 20.0934 103.665C20.3491 104.129 20.4769 104.751 20.4769 105.531V112H18.9684V110.67H18.8917C18.7894 110.884 18.619 111.112 18.3803 111.354C18.1417 111.597 17.8242 111.804 17.4279 111.974C17.0316 112.145 16.5479 112.23 15.9769 112.23ZM16.207 110.875C16.8036 110.875 17.3065 110.758 17.7156 110.523C18.1289 110.289 18.44 109.987 18.6488 109.616C18.8619 109.245 18.9684 108.855 18.9684 108.446V107.065C18.9045 107.142 18.7638 107.212 18.5465 107.276C18.3335 107.336 18.0863 107.389 17.805 107.436C17.5281 107.479 17.2575 107.517 16.9933 107.551C16.7333 107.581 16.5224 107.607 16.3604 107.628C15.9684 107.679 15.6019 107.762 15.261 107.877C14.9244 107.988 14.6516 108.156 14.4428 108.382C14.2383 108.604 14.136 108.906 14.136 109.29C14.136 109.814 14.3299 110.21 14.7177 110.479C15.1097 110.743 15.6062 110.875 16.207 110.875ZM23.2303 112V102.182H24.6877V103.665H24.79C24.9689 103.179 25.2928 102.785 25.7615 102.482C26.2303 102.18 26.7587 102.028 27.3468 102.028C27.4576 102.028 27.5961 102.031 27.7623 102.035C27.9284 102.039 28.0542 102.045 28.1394 102.054V103.588C28.0882 103.575 27.9711 103.556 27.7878 103.531C27.6088 103.501 27.4192 103.486 27.2189 103.486C26.7417 103.486 26.3155 103.586 25.9405 103.786C25.5698 103.982 25.2757 104.255 25.0584 104.604C24.8453 104.95 24.7388 105.344 24.7388 105.787V112H23.2303ZM29.9276 112V102.182H31.3849V103.665H31.4872C31.6662 103.179 31.9901 102.785 32.4588 102.482C32.9276 102.18 33.456 102.028 34.044 102.028C34.1548 102.028 34.2933 102.031 34.4595 102.035C34.6257 102.039 34.7514 102.045 34.8366 102.054V103.588C34.7855 103.575 34.6683 103.556 34.4851 103.531C34.3061 103.501 34.1165 103.486 33.9162 103.486C33.4389 103.486 33.0128 103.586 32.6378 103.786C32.267 103.982 31.973 104.255 31.7557 104.604C31.5426 104.95 31.4361 105.344 31.4361 105.787V112H29.9276ZM37.8952 115.682C37.6396 115.682 37.4116 115.661 37.2113 115.618C37.011 115.58 36.8725 115.541 36.7958 115.503L37.1793 114.173C37.5458 114.267 37.8697 114.301 38.1509 114.276C38.4322 114.25 38.6815 114.124 38.8988 113.898C39.1204 113.677 39.3228 113.317 39.506 112.818L39.7873 112.051L36.1566 102.182H37.793L40.5032 110.006H40.6055L43.3157 102.182H44.9521L40.7844 113.432C40.5969 113.939 40.3647 114.359 40.0877 114.691C39.8107 115.028 39.489 115.277 39.1225 115.439C38.7603 115.601 38.3512 115.682 37.8952 115.682ZM58.9602 104.381L57.6051 104.764C57.5199 104.538 57.3942 104.319 57.228 104.106C57.0661 103.888 56.8445 103.71 56.5632 103.569C56.282 103.428 55.9219 103.358 55.483 103.358C54.8821 103.358 54.3814 103.496 53.9808 103.773C53.5845 104.046 53.3864 104.393 53.3864 104.815C53.3864 105.19 53.5227 105.487 53.7955 105.704C54.0682 105.921 54.4943 106.102 55.0739 106.247L56.5312 106.605C57.4091 106.818 58.0632 107.144 58.4936 107.583C58.924 108.018 59.1392 108.578 59.1392 109.264C59.1392 109.827 58.9773 110.33 58.6534 110.773C58.3338 111.216 57.8864 111.565 57.3111 111.821C56.7358 112.077 56.0668 112.205 55.304 112.205C54.3026 112.205 53.4737 111.987 52.8175 111.553C52.1612 111.118 51.7457 110.483 51.571 109.648L53.0028 109.29C53.1392 109.818 53.397 110.214 53.7763 110.479C54.1598 110.743 54.6605 110.875 55.2784 110.875C55.9815 110.875 56.5398 110.726 56.9531 110.428C57.3707 110.125 57.5795 109.763 57.5795 109.341C57.5795 109 57.4602 108.714 57.2216 108.484C56.983 108.25 56.6165 108.075 56.1222 107.96L54.4858 107.577C53.5866 107.364 52.9261 107.033 52.5043 106.586C52.0866 106.134 51.8778 105.57 51.8778 104.892C51.8778 104.338 52.0334 103.848 52.3445 103.422C52.6598 102.996 53.0881 102.661 53.6293 102.418C54.1747 102.175 54.7926 102.054 55.483 102.054C56.4545 102.054 57.2173 102.267 57.7713 102.693C58.3295 103.119 58.7259 103.682 58.9602 104.381ZM64.2992 112.23C63.677 112.23 63.1124 112.113 62.6053 111.879C62.0982 111.64 61.6955 111.297 61.3972 110.849C61.0989 110.398 60.9498 109.852 60.9498 109.213C60.9498 108.651 61.0605 108.195 61.2821 107.845C61.5037 107.491 61.7999 107.214 62.1706 107.014C62.5414 106.814 62.9505 106.665 63.3979 106.567C63.8496 106.464 64.3034 106.384 64.7594 106.324C65.356 106.247 65.8397 106.19 66.2104 106.151C66.5854 106.109 66.8581 106.038 67.0286 105.94C67.2033 105.842 67.2907 105.672 67.2907 105.429V105.378C67.2907 104.747 67.1181 104.257 66.7729 103.908C66.432 103.558 65.9142 103.384 65.2196 103.384C64.4995 103.384 63.9348 103.541 63.5257 103.857C63.1167 104.172 62.829 104.509 62.6628 104.866L61.231 104.355C61.4867 103.759 61.8276 103.294 62.2537 102.962C62.6841 102.625 63.1529 102.391 63.66 102.259C64.1713 102.122 64.6742 102.054 65.1685 102.054C65.4838 102.054 65.8461 102.092 66.2551 102.169C66.6685 102.241 67.0669 102.393 67.4505 102.623C67.8382 102.853 68.16 103.2 68.4157 103.665C68.6713 104.129 68.7992 104.751 68.7992 105.531V112H67.2907V110.67H67.214C67.1117 110.884 66.9412 111.112 66.7026 111.354C66.464 111.597 66.1465 111.804 65.7502 111.974C65.3539 112.145 64.8702 112.23 64.2992 112.23ZM64.5293 110.875C65.1259 110.875 65.6287 110.758 66.0378 110.523C66.4512 110.289 66.7623 109.987 66.9711 109.616C67.1841 109.245 67.2907 108.855 67.2907 108.446V107.065C67.2267 107.142 67.0861 107.212 66.8688 107.276C66.6557 107.336 66.4086 107.389 66.1273 107.436C65.8503 107.479 65.5797 107.517 65.3155 107.551C65.0556 107.581 64.8446 107.607 64.6827 107.628C64.2907 107.679 63.9242 107.762 63.5833 107.877C63.2466 107.988 62.9739 108.156 62.7651 108.382C62.5605 108.604 62.4583 108.906 62.4583 109.29C62.4583 109.814 62.6522 110.21 63.04 110.479C63.432 110.743 63.9284 110.875 64.5293 110.875ZM79.2294 102.182L75.5987 112H74.0646L70.4339 102.182H72.0703L74.7805 110.006H74.8828L77.593 102.182H79.2294ZM84.9854 112.205C84.0394 112.205 83.2234 111.996 82.5373 111.578C81.8555 111.156 81.3292 110.568 80.9585 109.814C80.592 109.055 80.4087 108.173 80.4087 107.168C80.4087 106.162 80.592 105.276 80.9585 104.509C81.3292 103.737 81.8448 103.136 82.5053 102.706C83.1701 102.271 83.9457 102.054 84.832 102.054C85.3434 102.054 85.8484 102.139 86.3469 102.31C86.8455 102.48 87.2994 102.757 87.7085 103.141C88.1175 103.52 88.4435 104.023 88.6864 104.649C88.9293 105.276 89.0508 106.047 89.0508 106.963V107.602H81.4826V106.298H87.5167C87.5167 105.744 87.4059 105.25 87.1843 104.815C86.967 104.381 86.6559 104.038 86.2511 103.786C85.8505 103.535 85.3775 103.409 84.832 103.409C84.2312 103.409 83.7113 103.558 83.2724 103.857C82.8377 104.151 82.5032 104.534 82.2688 105.007C82.0344 105.48 81.9173 105.987 81.9173 106.528V107.398C81.9173 108.139 82.0451 108.768 82.3008 109.283C82.5607 109.795 82.9208 110.185 83.381 110.453C83.8413 110.717 84.3761 110.849 84.9854 110.849C85.3817 110.849 85.7397 110.794 86.0593 110.683C86.3832 110.568 86.6623 110.398 86.8967 110.172C87.131 109.942 87.3121 109.656 87.44 109.315L88.8974 109.724C88.744 110.219 88.4862 110.653 88.1239 111.028C87.7617 111.399 87.3143 111.689 86.7816 111.898C86.2489 112.102 85.6502 112.205 84.9854 112.205ZM98.3001 104.381L96.945 104.764C96.8597 104.538 96.734 104.319 96.5678 104.106C96.4059 103.888 96.1843 103.71 95.9031 103.569C95.6218 103.428 95.2617 103.358 94.8228 103.358C94.2219 103.358 93.7212 103.496 93.3207 103.773C92.9244 104.046 92.7262 104.393 92.7262 104.815C92.7262 105.19 92.8626 105.487 93.1353 105.704C93.408 105.921 93.8342 106.102 94.4137 106.247L95.8711 106.605C96.7489 106.818 97.4031 107.144 97.8335 107.583C98.2638 108.018 98.479 108.578 98.479 109.264C98.479 109.827 98.3171 110.33 97.9933 110.773C97.6737 111.216 97.2262 111.565 96.6509 111.821C96.0756 112.077 95.4066 112.205 94.6438 112.205C93.6424 112.205 92.8136 111.987 92.1573 111.553C91.5011 111.118 91.0856 110.483 90.9109 109.648L92.3427 109.29C92.479 109.818 92.7369 110.214 93.1161 110.479C93.4996 110.743 94.0004 110.875 94.6183 110.875C95.3214 110.875 95.8796 110.726 96.293 110.428C96.7106 110.125 96.9194 109.763 96.9194 109.341C96.9194 109 96.8001 108.714 96.5614 108.484C96.3228 108.25 95.9563 108.075 95.462 107.96L93.8256 107.577C92.9265 107.364 92.266 107.033 91.8441 106.586C91.4265 106.134 91.2177 105.57 91.2177 104.892C91.2177 104.338 91.3732 103.848 91.6843 103.422C91.9996 102.996 92.4279 102.661 92.9691 102.418C93.5146 102.175 94.1325 102.054 94.8228 102.054C95.7944 102.054 96.5572 102.267 97.1112 102.693C97.6694 103.119 98.0657 103.682 98.3001 104.381ZM107.321 106.094V112H105.812V98.9091H107.321V103.716H107.449C107.679 103.209 108.024 102.806 108.484 102.508C108.949 102.205 109.567 102.054 110.338 102.054C111.007 102.054 111.593 102.188 112.096 102.457C112.599 102.721 112.988 103.128 113.265 103.678C113.547 104.223 113.687 104.918 113.687 105.761V112H112.179V105.864C112.179 105.084 111.976 104.481 111.572 104.055C111.171 103.624 110.615 103.409 109.903 103.409C109.409 103.409 108.966 103.513 108.574 103.722C108.186 103.931 107.879 104.236 107.653 104.636C107.432 105.037 107.321 105.523 107.321 106.094ZM116.447 112V102.182H117.956V112H116.447ZM117.214 100.545C116.92 100.545 116.667 100.445 116.453 100.245C116.245 100.045 116.14 99.804 116.14 99.5227C116.14 99.2415 116.245 99.0007 116.453 98.8004C116.667 98.6001 116.92 98.5 117.214 98.5C117.508 98.5 117.76 98.6001 117.968 98.8004C118.181 99.0007 118.288 99.2415 118.288 99.5227C118.288 99.804 118.181 100.045 117.968 100.245C117.76 100.445 117.508 100.545 117.214 100.545ZM127.673 104.381L126.318 104.764C126.233 104.538 126.107 104.319 125.941 104.106C125.779 103.888 125.557 103.71 125.276 103.569C124.995 103.428 124.635 103.358 124.196 103.358C123.595 103.358 123.094 103.496 122.694 103.773C122.297 104.046 122.099 104.393 122.099 104.815C122.099 105.19 122.236 105.487 122.508 105.704C122.781 105.921 123.207 106.102 123.787 106.247L125.244 106.605C126.122 106.818 126.776 107.144 127.206 107.583C127.637 108.018 127.852 108.578 127.852 109.264C127.852 109.827 127.69 110.33 127.366 110.773C127.047 111.216 126.599 111.565 126.024 111.821C125.449 112.077 124.78 112.205 124.017 112.205C123.015 112.205 122.187 111.987 121.53 111.553C120.874 111.118 120.459 110.483 120.284 109.648L121.716 109.29C121.852 109.818 122.11 110.214 122.489 110.479C122.873 110.743 123.373 110.875 123.991 110.875C124.694 110.875 125.253 110.726 125.666 110.428C126.084 110.125 126.292 109.763 126.292 109.341C126.292 109 126.173 108.714 125.934 108.484C125.696 108.25 125.329 108.075 124.835 107.96L123.199 107.577C122.3 107.364 121.639 107.033 121.217 106.586C120.8 106.134 120.591 105.57 120.591 104.892C120.591 104.338 120.746 103.848 121.057 103.422C121.373 102.996 121.801 102.661 122.342 102.418C122.888 102.175 123.506 102.054 124.196 102.054C125.167 102.054 125.93 102.267 126.484 102.693C127.042 103.119 127.439 103.682 127.673 104.381ZM138.893 112.205C138.075 112.205 137.352 111.998 136.726 111.585C136.099 111.167 135.609 110.579 135.256 109.82C134.902 109.058 134.725 108.156 134.725 107.116C134.725 106.085 134.902 105.19 135.256 104.432C135.609 103.673 136.102 103.087 136.732 102.674C137.363 102.261 138.092 102.054 138.918 102.054C139.558 102.054 140.063 102.161 140.433 102.374C140.808 102.582 141.094 102.821 141.29 103.089C141.49 103.354 141.646 103.571 141.756 103.741H141.884V98.9091H143.393V112H141.935V110.491H141.756C141.646 110.67 141.488 110.896 141.283 111.169C141.079 111.437 140.787 111.678 140.408 111.891C140.028 112.1 139.523 112.205 138.893 112.205ZM139.097 110.849C139.702 110.849 140.214 110.692 140.631 110.376C141.049 110.057 141.366 109.616 141.584 109.053C141.801 108.487 141.91 107.832 141.91 107.091C141.91 106.358 141.803 105.717 141.59 105.167C141.377 104.613 141.062 104.183 140.644 103.876C140.227 103.565 139.711 103.409 139.097 103.409C138.458 103.409 137.925 103.573 137.499 103.901C137.077 104.225 136.76 104.666 136.547 105.224C136.338 105.778 136.234 106.401 136.234 107.091C136.234 107.79 136.34 108.425 136.553 108.996C136.771 109.562 137.09 110.014 137.512 110.351C137.938 110.683 138.467 110.849 139.097 110.849ZM149.254 112.23C148.632 112.23 148.067 112.113 147.56 111.879C147.053 111.64 146.651 111.297 146.352 110.849C146.054 110.398 145.905 109.852 145.905 109.213C145.905 108.651 146.016 108.195 146.237 107.845C146.459 107.491 146.755 107.214 147.126 107.014C147.496 106.814 147.906 106.665 148.353 106.567C148.805 106.464 149.259 106.384 149.714 106.324C150.311 106.247 150.795 106.19 151.165 106.151C151.54 106.109 151.813 106.038 151.984 105.94C152.158 105.842 152.246 105.672 152.246 105.429V105.378C152.246 104.747 152.073 104.257 151.728 103.908C151.387 103.558 150.869 103.384 150.175 103.384C149.455 103.384 148.89 103.541 148.481 103.857C148.072 104.172 147.784 104.509 147.618 104.866L146.186 104.355C146.442 103.759 146.783 103.294 147.209 102.962C147.639 102.625 148.108 102.391 148.615 102.259C149.126 102.122 149.629 102.054 150.124 102.054C150.439 102.054 150.801 102.092 151.21 102.169C151.624 102.241 152.022 102.393 152.406 102.623C152.793 102.853 153.115 103.2 153.371 103.665C153.626 104.129 153.754 104.751 153.754 105.531V112H152.246V110.67H152.169C152.067 110.884 151.896 111.112 151.658 111.354C151.419 111.597 151.102 111.804 150.705 111.974C150.309 112.145 149.825 112.23 149.254 112.23ZM149.484 110.875C150.081 110.875 150.584 110.758 150.993 110.523C151.406 110.289 151.717 109.987 151.926 109.616C152.139 109.245 152.246 108.855 152.246 108.446V107.065C152.182 107.142 152.041 107.212 151.824 107.276C151.611 107.336 151.364 107.389 151.082 107.436C150.805 107.479 150.535 107.517 150.271 107.551C150.011 107.581 149.8 107.607 149.638 107.628C149.246 107.679 148.879 107.762 148.538 107.877C148.202 107.988 147.929 108.156 147.72 108.382C147.516 108.604 147.413 108.906 147.413 109.29C147.413 109.814 147.607 110.21 147.995 110.479C148.387 110.743 148.884 110.875 149.484 110.875ZM162.695 107.986V102.182H164.204V112H162.695V110.338H162.593C162.363 110.837 162.005 111.261 161.519 111.61C161.033 111.955 160.42 112.128 159.678 112.128C159.064 112.128 158.519 111.994 158.042 111.725C157.564 111.452 157.189 111.043 156.917 110.498C156.644 109.948 156.508 109.256 156.508 108.42V102.182H158.016V108.318C158.016 109.034 158.216 109.605 158.617 110.031C159.022 110.457 159.537 110.67 160.164 110.67C160.539 110.67 160.92 110.575 161.308 110.383C161.7 110.191 162.028 109.897 162.292 109.501C162.561 109.104 162.695 108.599 162.695 107.986ZM170.93 115.886C170.201 115.886 169.575 115.793 169.05 115.605C168.526 115.422 168.089 115.179 167.74 114.876C167.395 114.578 167.12 114.259 166.915 113.918L168.117 113.074C168.254 113.253 168.426 113.457 168.635 113.688C168.844 113.922 169.129 114.124 169.491 114.295C169.858 114.469 170.337 114.557 170.93 114.557C171.722 114.557 172.376 114.365 172.892 113.982C173.408 113.598 173.665 112.997 173.665 112.179V110.185H173.538C173.427 110.364 173.269 110.585 173.065 110.849C172.864 111.109 172.575 111.342 172.195 111.546C171.82 111.746 171.313 111.847 170.674 111.847C169.881 111.847 169.17 111.659 168.539 111.284C167.913 110.909 167.416 110.364 167.05 109.648C166.688 108.932 166.506 108.062 166.506 107.04C166.506 106.034 166.683 105.158 167.037 104.413C167.391 103.663 167.883 103.083 168.513 102.674C169.144 102.261 169.873 102.054 170.7 102.054C171.339 102.054 171.846 102.161 172.221 102.374C172.6 102.582 172.89 102.821 173.09 103.089C173.295 103.354 173.452 103.571 173.563 103.741H173.717V102.182H175.174V112.281C175.174 113.125 174.982 113.811 174.599 114.339C174.219 114.872 173.708 115.262 173.065 115.509C172.425 115.761 171.714 115.886 170.93 115.886ZM170.879 110.491C171.484 110.491 171.995 110.353 172.413 110.076C172.83 109.799 173.148 109.401 173.365 108.881C173.582 108.361 173.691 107.739 173.691 107.014C173.691 106.307 173.585 105.683 173.371 105.141C173.158 104.6 172.843 104.176 172.425 103.869C172.008 103.562 171.492 103.409 170.879 103.409C170.239 103.409 169.707 103.571 169.281 103.895C168.859 104.219 168.541 104.653 168.328 105.199C168.119 105.744 168.015 106.349 168.015 107.014C168.015 107.696 168.121 108.299 168.335 108.823C168.552 109.343 168.871 109.752 169.293 110.05C169.719 110.344 170.248 110.491 170.879 110.491ZM179.444 106.094V112H177.935V98.9091H179.444V103.716H179.572C179.802 103.209 180.147 102.806 180.607 102.508C181.072 102.205 181.69 102.054 182.461 102.054C183.13 102.054 183.716 102.188 184.219 102.457C184.722 102.721 185.112 103.128 185.388 103.678C185.67 104.223 185.81 104.918 185.81 105.761V112H184.302V105.864C184.302 105.084 184.099 104.481 183.695 104.055C183.294 103.624 182.738 103.409 182.026 103.409C181.532 103.409 181.089 103.513 180.697 103.722C180.309 103.931 180.002 104.236 179.776 104.636C179.555 105.037 179.444 105.523 179.444 106.094ZM192.84 102.182V103.46H187.752V102.182H192.84ZM189.235 99.8295H190.743V109.188C190.743 109.614 190.805 109.933 190.929 110.146C191.057 110.355 191.219 110.496 191.415 110.568C191.615 110.636 191.826 110.67 192.047 110.67C192.214 110.67 192.35 110.662 192.456 110.645C192.563 110.624 192.648 110.607 192.712 110.594L193.019 111.949C192.917 111.987 192.774 112.026 192.591 112.064C192.407 112.107 192.175 112.128 191.894 112.128C191.468 112.128 191.05 112.036 190.641 111.853C190.236 111.67 189.9 111.391 189.631 111.016C189.367 110.641 189.235 110.168 189.235 109.597V99.8295ZM199.12 112.205C198.174 112.205 197.358 111.996 196.672 111.578C195.99 111.156 195.464 110.568 195.093 109.814C194.727 109.055 194.544 108.173 194.544 107.168C194.544 106.162 194.727 105.276 195.093 104.509C195.464 103.737 195.98 103.136 196.64 102.706C197.305 102.271 198.08 102.054 198.967 102.054C199.478 102.054 199.983 102.139 200.482 102.31C200.98 102.48 201.434 102.757 201.843 103.141C202.252 103.52 202.578 104.023 202.821 104.649C203.064 105.276 203.186 106.047 203.186 106.963V107.602H195.617V106.298H201.651C201.651 105.744 201.541 105.25 201.319 104.815C201.102 104.381 200.791 104.038 200.386 103.786C199.985 103.535 199.512 103.409 198.967 103.409C198.366 103.409 197.846 103.558 197.407 103.857C196.972 104.151 196.638 104.534 196.404 105.007C196.169 105.48 196.052 105.987 196.052 106.528V107.398C196.052 108.139 196.18 108.768 196.436 109.283C196.695 109.795 197.056 110.185 197.516 110.453C197.976 110.717 198.511 110.849 199.12 110.849C199.517 110.849 199.874 110.794 200.194 110.683C200.518 110.568 200.797 110.398 201.031 110.172C201.266 109.942 201.447 109.656 201.575 109.315L203.032 109.724C202.879 110.219 202.621 110.653 202.259 111.028C201.896 111.399 201.449 111.689 200.916 111.898C200.384 112.102 199.785 112.205 199.12 112.205ZM205.48 112V102.182H206.938V103.665H207.04C207.219 103.179 207.543 102.785 208.012 102.482C208.48 102.18 209.009 102.028 209.597 102.028C209.708 102.028 209.846 102.031 210.012 102.035C210.178 102.039 210.304 102.045 210.389 102.054V103.588C210.338 103.575 210.221 103.556 210.038 103.531C209.859 103.501 209.669 103.486 209.469 103.486C208.992 103.486 208.566 103.586 208.191 103.786C207.82 103.982 207.526 104.255 207.308 104.604C207.095 104.95 206.989 105.344 206.989 105.787V112H205.48Z" fill="#586E75"/>
<path d="M439 94L630 106" stroke="#586E75"/>
<path d="M869 96C776 96 617.2 23.2049 510 22.7905C376 22.2724 78 12.6883 73 77.1867" stroke="#586E75"/>
<path d="M772 96H966" stroke="#586E75"/>
<mask id="path-7-inside-1_1_390" fill="white">
<path fill-rule="evenodd" clip-rule="evenodd" d="M847.625 22H835.875V45.1373H830L841.75 84L853.5 45.1373H847.625V22Z"/>
</mask>
<path fill-rule="evenodd" clip-rule="evenodd" d="M847.625 22H835.875V45.1373H830L841.75 84L853.5 45.1373H847.625V22Z" fill="#586E75"/>
<path d="M835.875 22V21H834.875V22H835.875ZM847.625 22H848.625V21H847.625V22ZM835.875 45.1373V46.1373H836.875V45.1373H835.875ZM830 45.1373V44.1373H828.653L829.043 45.4267L830 45.1373ZM841.75 84L840.793 84.2894L841.75 87.4553L842.707 84.2894L841.75 84ZM853.5 45.1373L854.457 45.4267L854.847 44.1373H853.5V45.1373ZM847.625 45.1373H846.625V46.1373H847.625V45.1373ZM835.875 23H847.625V21H835.875V23ZM836.875 45.1373V22H834.875V45.1373H836.875ZM835.875 44.1373H830V46.1373H835.875V44.1373ZM829.043 45.4267L840.793 84.2894L842.707 83.7106L830.957 44.8479L829.043 45.4267ZM842.707 84.2894L854.457 45.4267L852.543 44.8479L840.793 83.7106L842.707 84.2894ZM853.5 44.1373H847.625V46.1373H853.5V44.1373ZM846.625 22V45.1373H848.625V22H846.625Z" fill="#586E75" mask="url(#path-7-inside-1_1_390)"/>
<path d="M772.869 6.31534V4.90909H782.688V6.31534H778.571V18H776.986V6.31534H772.869ZM784.93 18V8.18182H786.438V18H784.93ZM785.697 6.54545C785.403 6.54545 785.149 6.44531 784.936 6.24503C784.727 6.04474 784.623 5.80398 784.623 5.52273C784.623 5.24148 784.727 5.00071 784.936 4.80043C785.149 4.60014 785.403 4.5 785.697 4.5C785.991 4.5 786.242 4.60014 786.451 4.80043C786.664 5.00071 786.77 5.24148 786.77 5.52273C786.77 5.80398 786.664 6.04474 786.451 6.24503C786.242 6.44531 785.991 6.54545 785.697 6.54545ZM789.201 18V8.18182H790.658V9.71591H790.786C790.991 9.19176 791.321 8.7848 791.777 8.49503C792.233 8.20099 792.781 8.05398 793.42 8.05398C794.067 8.05398 794.607 8.20099 795.037 8.49503C795.472 8.7848 795.81 9.19176 796.053 9.71591H796.156C796.407 9.20881 796.784 8.80611 797.287 8.50781C797.79 8.20526 798.393 8.05398 799.096 8.05398C799.974 8.05398 800.692 8.32884 801.25 8.87855C801.808 9.42401 802.087 10.2741 802.087 11.429V18H800.579V11.429C800.579 10.7045 800.381 10.1868 799.984 9.87571C799.588 9.56463 799.121 9.40909 798.585 9.40909C797.894 9.40909 797.359 9.6179 796.98 10.0355C796.601 10.4489 796.411 10.973 796.411 11.608V18H794.877V11.2756C794.877 10.7173 794.696 10.2678 794.334 9.92685C793.972 9.58168 793.505 9.40909 792.934 9.40909C792.542 9.40909 792.175 9.51349 791.835 9.7223C791.498 9.93111 791.225 10.2209 791.016 10.5916C790.812 10.9581 790.71 11.3821 790.71 11.8636V18H789.201ZM808.962 18.2045C808.016 18.2045 807.2 17.9957 806.514 17.5781C805.832 17.1562 805.306 16.5682 804.935 15.8139C804.569 15.0554 804.385 14.1733 804.385 13.1676C804.385 12.1619 804.569 11.2756 804.935 10.5085C805.306 9.73722 805.821 9.13636 806.482 8.70597C807.147 8.27131 807.922 8.05398 808.809 8.05398C809.32 8.05398 809.825 8.1392 810.324 8.30966C810.822 8.48011 811.276 8.7571 811.685 9.14062C812.094 9.51989 812.42 10.0227 812.663 10.6491C812.906 11.2756 813.027 12.0469 813.027 12.9631V13.6023H805.459V12.2983H811.493C811.493 11.7443 811.382 11.25 811.161 10.8153C810.944 10.3807 810.632 10.0376 810.228 9.78622C809.827 9.5348 809.354 9.40909 808.809 9.40909C808.208 9.40909 807.688 9.55824 807.249 9.85653C806.814 10.1506 806.48 10.5341 806.245 11.0071C806.011 11.4801 805.894 11.9872 805.894 12.5284V13.3977C805.894 14.1392 806.022 14.7678 806.277 15.2834C806.537 15.7947 806.897 16.1847 807.358 16.4531C807.818 16.7173 808.353 16.8494 808.962 16.8494C809.358 16.8494 809.716 16.794 810.036 16.6832C810.36 16.5682 810.639 16.3977 810.873 16.1719C811.108 15.9418 811.289 15.6562 811.417 15.3153L812.874 15.7244C812.721 16.2188 812.463 16.6534 812.1 17.0284C811.738 17.3991 811.291 17.6889 810.758 17.8977C810.225 18.1023 809.627 18.2045 808.962 18.2045ZM816.831 4.90909V18H815.322V4.90909H816.831ZM819.594 18V8.18182H821.102V18H819.594ZM820.361 6.54545C820.067 6.54545 819.813 6.44531 819.6 6.24503C819.391 6.04474 819.287 5.80398 819.287 5.52273C819.287 5.24148 819.391 5.00071 819.6 4.80043C819.813 4.60014 820.067 4.5 820.361 4.5C820.655 4.5 820.906 4.60014 821.115 4.80043C821.328 5.00071 821.434 5.24148 821.434 5.52273C821.434 5.80398 821.328 6.04474 821.115 6.24503C820.906 6.44531 820.655 6.54545 820.361 6.54545ZM825.374 12.0938V18H823.865V8.18182H825.322V9.71591H825.45C825.68 9.21733 826.03 8.81676 826.499 8.5142C826.967 8.20739 827.572 8.05398 828.314 8.05398C828.979 8.05398 829.56 8.19034 830.059 8.46307C830.558 8.73153 830.945 9.14062 831.222 9.69034C831.499 10.2358 831.638 10.9261 831.638 11.7614V18H830.129V11.8636C830.129 11.0923 829.929 10.4915 829.528 10.0611C829.128 9.62642 828.578 9.40909 827.879 9.40909C827.398 9.40909 826.967 9.51349 826.588 9.7223C826.213 9.93111 825.917 10.2358 825.7 10.6364C825.482 11.0369 825.374 11.5227 825.374 12.0938ZM838.511 18.2045C837.565 18.2045 836.749 17.9957 836.063 17.5781C835.381 17.1562 834.855 16.5682 834.484 15.8139C834.117 15.0554 833.934 14.1733 833.934 13.1676C833.934 12.1619 834.117 11.2756 834.484 10.5085C834.855 9.73722 835.37 9.13636 836.031 8.70597C836.695 8.27131 837.471 8.05398 838.357 8.05398C838.869 8.05398 839.374 8.1392 839.872 8.30966C840.371 8.48011 840.825 8.7571 841.234 9.14062C841.643 9.51989 841.969 10.0227 842.212 10.6491C842.455 11.2756 842.576 12.0469 842.576 12.9631V13.6023H835.008V12.2983H841.042C841.042 11.7443 840.931 11.25 840.71 10.8153C840.492 10.3807 840.181 10.0376 839.776 9.78622C839.376 9.5348 838.903 9.40909 838.357 9.40909C837.757 9.40909 837.237 9.55824 836.798 9.85653C836.363 10.1506 836.029 10.5341 835.794 11.0071C835.56 11.4801 835.443 11.9872 835.443 12.5284V13.3977C835.443 14.1392 835.57 14.7678 835.826 15.2834C836.086 15.7947 836.446 16.1847 836.906 16.4531C837.367 16.7173 837.901 16.8494 838.511 16.8494C838.907 16.8494 839.265 16.794 839.585 16.6832C839.909 16.5682 840.188 16.3977 840.422 16.1719C840.656 15.9418 840.838 15.6562 840.965 15.3153L842.423 15.7244C842.269 16.2188 842.012 16.6534 841.649 17.0284C841.287 17.3991 840.84 17.6889 840.307 17.8977C839.774 18.1023 839.176 18.2045 838.511 18.2045ZM851.825 10.3807L850.47 10.7642C850.385 10.5384 850.259 10.3189 850.093 10.1058C849.931 9.88849 849.71 9.70952 849.428 9.56889C849.147 9.42827 848.787 9.35795 848.348 9.35795C847.747 9.35795 847.247 9.49645 846.846 9.77344C846.45 10.0462 846.252 10.3935 846.252 10.8153C846.252 11.1903 846.388 11.4865 846.661 11.7038C846.933 11.9212 847.36 12.1023 847.939 12.2472L849.396 12.6051C850.274 12.8182 850.928 13.1442 851.359 13.5831C851.789 14.0178 852.004 14.5781 852.004 15.2642C852.004 15.8267 851.843 16.3295 851.519 16.7727C851.199 17.2159 850.752 17.5653 850.176 17.821C849.601 18.0767 848.932 18.2045 848.169 18.2045C847.168 18.2045 846.339 17.9872 845.683 17.5526C845.026 17.1179 844.611 16.483 844.436 15.6477L845.868 15.2898C846.004 15.8182 846.262 16.2145 846.642 16.4787C847.025 16.7429 847.526 16.875 848.144 16.875C848.847 16.875 849.405 16.7259 849.818 16.4276C850.236 16.125 850.445 15.7628 850.445 15.3409C850.445 15 850.325 14.7145 850.087 14.4844C849.848 14.25 849.482 14.0753 848.987 13.9602L847.351 13.5767C846.452 13.3636 845.791 13.0334 845.369 12.5859C844.952 12.1342 844.743 11.5696 844.743 10.892C844.743 10.3381 844.899 9.84801 845.21 9.42188C845.525 8.99574 845.953 8.66122 846.494 8.41832C847.04 8.17543 847.658 8.05398 848.348 8.05398C849.32 8.05398 850.083 8.26705 850.637 8.69318C851.195 9.11932 851.591 9.68182 851.825 10.3807ZM859.338 18V8.18182H860.795V9.71591H860.923C861.127 9.19176 861.458 8.7848 861.914 8.49503C862.37 8.20099 862.917 8.05398 863.556 8.05398C864.204 8.05398 864.743 8.20099 865.174 8.49503C865.608 8.7848 865.947 9.19176 866.19 9.71591H866.292C866.544 9.20881 866.921 8.80611 867.424 8.50781C867.926 8.20526 868.529 8.05398 869.233 8.05398C870.11 8.05398 870.828 8.32884 871.387 8.87855C871.945 9.42401 872.224 10.2741 872.224 11.429V18H870.716V11.429C870.716 10.7045 870.517 10.1868 870.121 9.87571C869.725 9.56463 869.258 9.40909 868.721 9.40909C868.031 9.40909 867.496 9.6179 867.117 10.0355C866.738 10.4489 866.548 10.973 866.548 11.608V18H865.014V11.2756C865.014 10.7173 864.833 10.2678 864.471 9.92685C864.108 9.58168 863.642 9.40909 863.071 9.40909C862.679 9.40909 862.312 9.51349 861.971 9.7223C861.635 9.93111 861.362 10.2209 861.153 10.5916C860.949 10.9581 860.846 11.3821 860.846 11.8636V18H859.338ZM879.099 18.2045C878.153 18.2045 877.337 17.9957 876.651 17.5781C875.969 17.1562 875.442 16.5682 875.072 15.8139C874.705 15.0554 874.522 14.1733 874.522 13.1676C874.522 12.1619 874.705 11.2756 875.072 10.5085C875.442 9.73722 875.958 9.13636 876.619 8.70597C877.283 8.27131 878.059 8.05398 878.945 8.05398C879.457 8.05398 879.962 8.1392 880.46 8.30966C880.959 8.48011 881.413 8.7571 881.822 9.14062C882.231 9.51989 882.557 10.0227 882.8 10.6491C883.043 11.2756 883.164 12.0469 883.164 12.9631V13.6023H875.596V12.2983H881.63C881.63 11.7443 881.519 11.25 881.298 10.8153C881.08 10.3807 880.769 10.0376 880.364 9.78622C879.964 9.5348 879.491 9.40909 878.945 9.40909C878.344 9.40909 877.825 9.55824 877.386 9.85653C876.951 10.1506 876.616 10.5341 876.382 11.0071C876.148 11.4801 876.031 11.9872 876.031 12.5284V13.3977C876.031 14.1392 876.158 14.7678 876.414 15.2834C876.674 15.7947 877.034 16.1847 877.494 16.4531C877.955 16.7173 878.489 16.8494 879.099 16.8494C879.495 16.8494 879.853 16.794 880.173 16.6832C880.496 16.5682 880.776 16.3977 881.01 16.1719C881.244 15.9418 881.425 15.6562 881.553 15.3153L883.011 15.7244C882.857 16.2188 882.599 16.6534 882.237 17.0284C881.875 17.3991 881.428 17.6889 880.895 17.8977C880.362 18.1023 879.763 18.2045 879.099 18.2045ZM885.459 18V8.18182H886.916V9.66477H887.018C887.197 9.17898 887.521 8.7848 887.99 8.48224C888.459 8.17969 888.987 8.02841 889.575 8.02841C889.686 8.02841 889.825 8.03054 889.991 8.0348C890.157 8.03906 890.283 8.04545 890.368 8.05398V9.58807C890.317 9.57528 890.2 9.55611 890.016 9.53054C889.837 9.50071 889.648 9.4858 889.447 9.4858C888.97 9.4858 888.544 9.58594 888.169 9.78622C887.798 9.98224 887.504 10.255 887.287 10.6044C887.074 10.9496 886.967 11.3437 886.967 11.7869V18H885.459ZM895.82 21.8864C895.092 21.8864 894.465 21.7926 893.941 21.6051C893.417 21.4219 892.98 21.179 892.631 20.8764C892.286 20.5781 892.011 20.2585 891.806 19.9176L893.008 19.0739C893.144 19.2528 893.317 19.4574 893.526 19.6875C893.734 19.9219 894.02 20.1243 894.382 20.2947C894.749 20.4695 895.228 20.5568 895.82 20.5568C896.613 20.5568 897.267 20.3651 897.783 19.9815C898.298 19.598 898.556 18.9972 898.556 18.179V16.1847H898.428C898.317 16.3636 898.16 16.5852 897.955 16.8494C897.755 17.1094 897.465 17.3416 897.086 17.5462C896.711 17.7464 896.204 17.8466 895.565 17.8466C894.772 17.8466 894.06 17.6591 893.43 17.2841C892.803 16.9091 892.307 16.3636 891.94 15.6477C891.578 14.9318 891.397 14.0625 891.397 13.0398C891.397 12.0341 891.574 11.1584 891.928 10.4126C892.281 9.66264 892.773 9.0831 893.404 8.67401C894.035 8.26065 894.763 8.05398 895.59 8.05398C896.229 8.05398 896.737 8.16051 897.112 8.37358C897.491 8.58239 897.781 8.82102 897.981 9.08949C898.185 9.35369 898.343 9.57102 898.454 9.74148H898.607V8.18182H900.065V18.2812C900.065 19.125 899.873 19.8111 899.489 20.3395C899.11 20.8722 898.599 21.2621 897.955 21.5092C897.316 21.7607 896.604 21.8864 895.82 21.8864ZM895.769 16.4915C896.374 16.4915 896.886 16.353 897.303 16.076C897.721 15.799 898.038 15.4006 898.256 14.8807C898.473 14.3608 898.582 13.7386 898.582 13.0142C898.582 12.3068 898.475 11.6825 898.262 11.1413C898.049 10.6001 897.734 10.1761 897.316 9.86932C896.898 9.5625 896.383 9.40909 895.769 9.40909C895.13 9.40909 894.597 9.57102 894.171 9.89489C893.749 10.2187 893.432 10.6534 893.219 11.1989C893.01 11.7443 892.906 12.3494 892.906 13.0142C892.906 13.696 893.012 14.299 893.225 14.8232C893.442 15.343 893.762 15.7521 894.184 16.0504C894.61 16.3445 895.138 16.4915 895.769 16.4915ZM906.942 18.2045C905.996 18.2045 905.18 17.9957 904.494 17.5781C903.812 17.1562 903.286 16.5682 902.915 15.8139C902.549 15.0554 902.366 14.1733 902.366 13.1676C902.366 12.1619 902.549 11.2756 902.915 10.5085C903.286 9.73722 903.802 9.13636 904.462 8.70597C905.127 8.27131 905.903 8.05398 906.789 8.05398C907.3 8.05398 907.805 8.1392 908.304 8.30966C908.803 8.48011 909.256 8.7571 909.665 9.14062C910.075 9.51989 910.401 10.0227 910.643 10.6491C910.886 11.2756 911.008 12.0469 911.008 12.9631V13.6023H903.44V12.2983H909.474C909.474 11.7443 909.363 11.25 909.141 10.8153C908.924 10.3807 908.613 10.0376 908.208 9.78622C907.808 9.5348 907.335 9.40909 906.789 9.40909C906.188 9.40909 905.668 9.55824 905.229 9.85653C904.795 10.1506 904.46 10.5341 904.226 11.0071C903.991 11.4801 903.874 11.9872 903.874 12.5284V13.3977C903.874 14.1392 904.002 14.7678 904.258 15.2834C904.518 15.7947 904.878 16.1847 905.338 16.4531C905.798 16.7173 906.333 16.8494 906.942 16.8494C907.339 16.8494 907.697 16.794 908.016 16.6832C908.34 16.5682 908.619 16.3977 908.854 16.1719C909.088 15.9418 909.269 15.6562 909.397 15.3153L910.854 15.7244C910.701 16.2188 910.443 16.6534 910.081 17.0284C909.719 17.3991 909.271 17.6889 908.739 17.8977C908.206 18.1023 907.607 18.2045 906.942 18.2045Z" fill="#586E75"/>
</svg>
